<svg width="1000" height="1000" viewBox="0 0 1000 1000" fill="none" xmlns="http://www.w3.org/2000/svg">
  <g opacity="0.2">
    <path d="M-100 200C100 150 200 350 400 300C600 250 800 450 1100 400" stroke="white" stroke-width="0.3"/>
    <path d="M-100 210C100 160 200 360 400 310C600 260 800 460 1100 410" stroke="white" stroke-width="0.3"/>
    <path d="M-100 220C100 170 200 370 400 320C600 270 800 470 1100 420" stroke="white" stroke-width="0.3"/>
    <path d="M-100 230C100 180 200 380 400 330C600 280 800 480 1100 430" stroke="white" stroke-width="0.3"/>
    <path d="M-100 240C100 190 200 390 400 340C600 290 800 490 1100 440" stroke="white" stroke-width="0.3"/>
    <path d="M-100 250C100 200 200 400 400 350C600 300 800 500 1100 450" stroke="white" stroke-width="0.3"/>
    <path d="M-100 260C100 210 200 410 400 360C600 310 800 510 1100 460" stroke="white" stroke-width="0.3"/>
    <path d="M-100 270C100 220 200 420 400 370C600 320 800 520 1100 470" stroke="white" stroke-width="0.3"/>
    <path d="M-100 280C100 230 200 430 400 380C600 330 800 530 1100 480" stroke="white" stroke-width="0.3"/>
    <path d="M-100 290C100 240 200 440 400 390C600 340 800 540 1100 490" stroke="white" stroke-width="0.3"/>
    
    <path d="M-100 500C200 400 300 700 600 600C900 500 1000 800 1200 700" stroke="white" stroke-width="0.3"/>
    <path d="M-100 510C200 410 300 710 600 610C900 510 1000 810 1200 710" stroke="white" stroke-width="0.3"/>
    <path d="M-100 520C200 420 300 720 600 620C900 520 1000 820 1200 720" stroke="white" stroke-width="0.3"/>
    <path d="M-100 530C200 430 300 730 600 630C900 530 1000 830 1200 730" stroke="white" stroke-width="0.3"/>
    <path d="M-100 540C200 440 300 740 600 640C900 540 1000 840 1200 740" stroke="white" stroke-width="0.3"/>
    <path d="M-100 550C200 450 300 750 600 650C900 550 1000 850 1200 750" stroke="white" stroke-width="0.3"/>
    <path d="M-100 560C200 460 300 760 600 660C900 560 1000 860 1200 760" stroke="white" stroke-width="0.3"/>
    <path d="M-100 570C200 470 300 770 600 670C900 570 1000 870 1200 770" stroke="white" stroke-width="0.3"/>
    <path d="M-100 580C200 480 300 780 600 680C900 580 1000 880 1200 780" stroke="white" stroke-width="0.3"/>
    <path d="M-100 590C200 490 300 790 600 690C900 590 1000 890 1200 790" stroke="white" stroke-width="0.3"/>

    <path d="M100 800C300 750 500 950 700 900C900 850 1100 1050 1300 1000" stroke="white" stroke-width="0.3"/>
    <path d="M100 810C300 760 500 960 700 910C900 860 1100 1060 1300 1010" stroke="white" stroke-width="0.3"/>
    <path d="M100 820C300 770 500 970 700 920C900 870 1100 1070 1300 1020" stroke="white" stroke-width="0.3"/>
    <path d="M100 830C300 780 500 980 700 930C900 880 1100 1080 1300 1030" stroke="white" stroke-width="0.3"/>
    <path d="M100 840C300 790 500 990 700 940C900 890 1100 1090 1300 1040" stroke="white" stroke-width="0.3"/>
    <path d="M100 850C300 800 500 1000 700 950C900 900 1100 1100 1300 1050" stroke="white" stroke-width="0.3"/>
    <path d="M100 860C300 810 500 1010 700 960C900 910 1100 1110 1300 1060" stroke="white" stroke-width="0.3"/>
    <path d="M100 870C300 820 500 1020 700 970C900 920 1100 1120 1300 1070" stroke="white" stroke-width="0.3"/>
    <path d="M100 880C300 830 500 1030 700 980C900 930 1100 1130 1300 1080" stroke="white" stroke-width="0.3"/>
    <path d="M100 890C300 840 500 1040 700 990C900 940 1100 1140 1300 1090" stroke="white" stroke-width="0.3"/>
  </g>
</svg>
