<svg width="914" height="1114" viewBox="0 0 914 1114" fill="none" xmlns="http://www.w3.org/2000/svg">
<path d="M881.071 516.593C881.071 516.593 681.691 728.182 408.557 727.789C135.401 727.407 552.439 44.082 552.439 44.082C552.431 44.105 529.322 82.673 529.322 82.673" stroke="#D02030" stroke-opacity="0.12" stroke-width="0.877694"/>
<path d="M870.204 532.319C870.204 532.319 672.398 750.9 398.941 747.894C125.496 744.887 537.216 36.735 537.216 36.735C537.208 36.759 514.4 76.731 514.4 76.731" stroke="#D02030" stroke-opacity="0.12" stroke-width="0.877694"/>
<path d="M859.04 548.533C859.04 548.533 662.789 774.13 389.022 768.498C115.257 762.863 521.696 29.908 521.696 29.908C521.688 29.931 499.18 71.308 499.18 71.308" stroke="#D02030" stroke-opacity="0.12" stroke-width="0.877694"/>
<path d="M847.451 565.471C847.451 565.471 652.742 798.086 378.651 789.831C104.554 781.571 505.738 23.806 505.738 23.806C505.73 23.83 483.519 66.612 483.519 66.612" stroke="#D02030" stroke-opacity="0.12" stroke-width="0.877694"/>
<path d="M835.814 582.494C835.814 582.494 642.643 822.108 368.216 811.232C93.7903 800.354 489.73 17.767 489.73 17.767C489.721 17.791 467.806 61.978 467.806 61.978" stroke="#D02030" stroke-opacity="0.12" stroke-width="0.877694"/>
<path d="M824.11 599.601C824.11 599.601 632.459 846.239 357.681 832.744C82.8944 819.242 473.632 11.831 473.632 11.831C473.623 11.855 452.003 57.448 452.003 57.448" stroke="#D02030" stroke-opacity="0.12" stroke-width="0.877694"/>
<path d="M812.374 616.804C812.374 616.804 622.23 870.47 347.069 854.348C71.9083 838.225 457.471 5.98003 457.471 5.98003C457.462 6.00403 436.135 53.003 436.135 53.003" stroke="#D02030" stroke-opacity="0.12" stroke-width="0.877694"/>
<path d="M800.59 634.078C800.59 634.078 611.942 894.773 336.409 876.012C60.8773 857.274 441.271 0.178024 441.271 0.178024C441.262 0.204024 420.227 48.611 420.227 48.611" stroke="#D02030" stroke-opacity="0.12" stroke-width="0.877694"/>
<path d="M491.008 885.404C491.008 885.404 821.041 752.169 907.433 441.026C993.823 129.908 0.0748291 301.939 0.0748291 301.939L56.0571 292.718" stroke="#D02030" stroke-opacity="0.12" stroke-width="0.877694"/>
<path d="M475.672 900.263C475.672 900.263 799.96 764.029 888.359 454.231C976.762 144.435 3.21729 327.24 3.21729 327.24L58.055 317.408" stroke="#D02030" stroke-opacity="0.12" stroke-width="0.877694"/>
<path d="M460.21 917.626C460.21 917.626 778.751 778.397 869.149 469.945C959.553 161.495 6.23901 355.048 6.23901 355.048L59.9315 344.608" stroke="#D02030" stroke-opacity="0.12" stroke-width="0.877694"/>
<path d="M444.601 935.163C444.601 935.163 757.39 792.942 849.79 485.816C942.196 178.692 9.10779 383.004 9.10779 383.004L61.655 371.954" stroke="#D02030" stroke-opacity="0.12" stroke-width="0.877694"/>
<path d="M428.862 952.878C428.862 952.878 735.892 807.692 830.287 501.892C924.678 196.116 11.8258 411.155 11.8258 411.155L63.2263 399.497" stroke="#D02030" stroke-opacity="0.12" stroke-width="0.877694"/>
<path d="M412.979 970.673C412.979 970.673 714.254 822.502 810.629 518.052C907.007 213.603 14.384 439.382 14.384 439.382L64.6393 427.116" stroke="#D02030" stroke-opacity="0.12" stroke-width="0.877694"/>
<path d="M396.478 987.991C396.478 987.991 691.996 836.84 790.342 533.74C888.693 230.641 16.2869 467.127 16.2869 467.127L65.3961 454.255" stroke="#D02030" stroke-opacity="0.12" stroke-width="0.877694"/>
<path d="M379.738 1005.25C379.738 1005.25 669.496 851.123 769.805 549.374C870.126 247.604 17.9608 494.79 17.9608 494.79L65.9241 481.31" stroke="#D02030" stroke-opacity="0.12" stroke-width="0.877694"/>
<path d="M361.972 1021.48C361.972 1021.48 645.958 864.401 748.237 563.96C850.512 263.543 18.5901 521.416 18.5901 521.416L65.4073 507.331" stroke="#D02030" stroke-opacity="0.12" stroke-width="0.877694"/>
<path d="M343.413 1036.94C343.413 1036.94 621.633 876.892 725.857 577.804C830.083 278.719 18.3973 547.29 18.3973 547.29L64.0693 532.599" stroke="#D02030" stroke-opacity="0.12" stroke-width="0.877694"/>
<path d="M324.103 1051.67C324.103 1051.67 596.552 888.66 702.709 590.927C808.87 293.195 17.432 572.431 17.432 572.431L61.9573 557.134" stroke="#D02030" stroke-opacity="0.12" stroke-width="0.877694"/>
<path d="M304.121 1065.71C304.121 1065.71 570.796 899.738 678.876 603.36C786.967 306.962 15.7543 596.865 15.7543 596.865L59.1343 580.966" stroke="#D02030" stroke-opacity="0.12" stroke-width="0.877694"/>
<path d="M284.042 1078.94C284.042 1078.94 544.93 910.031 654.935 614.966C764.935 319.924 13.9866 620.447 13.9866 620.447L56.2198 603.944" stroke="#D02030" stroke-opacity="0.12" stroke-width="0.877694"/>
<path d="M263.953 1091.43C263.953 1091.43 519.058 919.569 630.959 625.862C742.862 332.155 12.1656 643.329 12.1656 643.329L53.2521 626.224" stroke="#D02030" stroke-opacity="0.12" stroke-width="0.877694"/>
<path d="M245.239 1102.8C245.239 1102.8 494.553 927.983 608.337 635.635C722.122 343.287 11.6893 665.076 11.6893 665.076L51.6291 647.369" stroke="#D02030" stroke-opacity="0.12" stroke-width="0.877694"/>
<path d="M227.727 1113.15C227.727 1113.15 471.24 935.407 586.899 644.397C702.557 353.386 12.3673 685.793 12.3673 685.793L51.1596 667.486" stroke="#D02030" stroke-opacity="0.12" stroke-width="0.877694"/>
</svg>
